# xmcd
#
# Track frame offsets:
#	151
#	19320
#	35489
#	51781
#	69129
#	88114
#	106937
#	125467
#	144825
#	166232
#	181286
#	197390
#	213772
#
# Disc length: 3087 seconds
#
# Revision: 0
# Processed by: cddbd v1.5.2PL0 Copyright (c) Steve Scherf et al.
# Submitted via: dBpowerAMP V4.0
#
DISCID=a40c0d0d
DTITLE=VARIOS - CANCUN PARTY
DYEAR=1997
DGENRE=Dance
TTITLE0=RUM DMC VS JASON NEVINS- ITS LIKE THAT
TTITLE1=MAX A MILION-BREAK MY STRIDE-
TTITLE2=LOS BELLOS-NO TENGO DINERO
TTITLE3=SQUEEZER- BLUE JEANS
TTITLE4=LAZZERO-TELL ME
TTITLE5=SPACE G-SPICE UP YOUR LOVE
TTITLE6=JAY JAY-CARELESS WHISPER
TTITLE7=SMASH COMPANY-WALKING ON THE SUN
TTITLE8=SUITE- I DO
TTITLE9=GOREGOUS-IM GRGEOUS
TTITLE10=OBJECT ME-EMERGENCY
TTITLE11=DA RECORD MAN- TOO NOSE
TTITLE12=CANCUN  PARTY MIX
EXTD=
EXTT0=
EXTT1=
EXTT2=
EXTT3=
EXTT4=
EXTT5=
EXTT6=
EXTT7=
EXTT8=
EXTT9=
EXTT10=
EXTT11=
EXTT12=
PLAYORDER=
